<svg width="237" height="64" viewBox="0 0 237 64" fill="none" xmlns="http://www.w3.org/2000/svg">
<path d="M7.352 16H16.568L15.736 19.968C17.1867 18.688 18.488 17.7067 19.64 17.024C20.8347 16.3413 22.1147 16 23.48 16C24.8453 16 25.912 16.4693 26.68 17.408C27.4907 18.3467 27.896 19.4773 27.896 20.8C27.896 22.0373 27.4907 23.1253 26.68 24.064C25.8693 25.0027 24.7387 25.472 23.288 25.472C22.3493 25.472 21.7093 25.2587 21.368 24.832C21.0693 24.3627 20.8347 23.7013 20.664 22.848C20.536 22.2933 20.408 21.888 20.28 21.632C20.152 21.376 19.9173 21.248 19.576 21.248C18.68 21.248 17.912 21.44 17.272 21.824C16.6747 22.1653 15.8853 22.784 14.904 23.68L9.784 48H0.568L7.352 16ZM46.7105 -3.8147e-06H48.0545L51.8945 12.096H49.8465L46.0065 6.976L35.9585 12.096H33.1425L46.7105 -3.8147e-06ZM36.0225 48.256C32.8652 48.256 30.3692 47.4453 28.5345 45.824C26.6998 44.2027 25.7825 41.6427 25.7825 38.144C25.7825 35.2427 26.3798 32.0213 27.5745 28.48C28.7692 24.9387 30.6892 21.888 33.3345 19.328C35.9798 16.7253 39.3078 15.424 43.3185 15.424C48.7798 15.424 51.5105 18.8373 51.5105 25.664V25.728C51.6385 25.7707 51.8732 25.792 52.2145 25.792C53.6225 25.792 55.2438 25.4293 57.0785 24.704C58.9132 23.936 60.5772 23.0187 62.0705 21.952L62.6465 23.68C61.4092 25.0027 59.7878 26.1333 57.7825 27.072C55.8198 27.968 53.6652 28.608 51.3185 28.992C50.9772 32.8747 50.1025 36.2667 48.6945 39.168C47.2865 42.0693 45.4732 44.3093 43.2545 45.888C41.0358 47.4667 38.6252 48.256 36.0225 48.256ZM38.5825 42.496C39.6065 42.496 40.6305 41.92 41.6545 40.768C42.6785 39.5733 43.5745 37.9733 44.3425 35.968C45.1105 33.92 45.6652 31.6587 46.0065 29.184C44.8545 28.928 44.2785 28.032 44.2785 26.496C44.2785 24.7467 44.9398 23.5947 46.2625 23.04C46.1772 21.632 45.9638 20.672 45.6225 20.16C45.2812 19.6053 44.6838 19.328 43.8305 19.328C42.4225 19.328 41.0572 20.352 39.7345 22.4C38.4118 24.448 37.3452 26.9013 36.5345 29.76C35.7238 32.6187 35.3185 35.136 35.3185 37.312C35.3185 39.36 35.5532 40.7467 36.0225 41.472C36.4918 42.1547 37.3452 42.496 38.5825 42.496ZM59.614 13.632H68.83L67.806 18.432C69.9393 16.5973 72.4353 15.68 75.294 15.68C77.6833 15.68 79.582 16.4693 80.99 18.048C82.398 19.6267 83.102 22.208 83.102 25.792C83.102 29.1627 82.6113 32.576 81.63 36.032C80.6487 39.4453 78.9847 42.368 76.638 44.8C74.2913 47.1893 71.198 48.384 67.358 48.384C64.6273 48.384 62.814 47.616 61.918 46.08L58.59 61.696L48.926 64L59.614 13.632ZM65.374 42.816C67.422 42.816 69.1073 41.856 70.43 39.936C71.7953 38.016 72.7767 35.7333 73.374 33.088C74.014 30.4 74.334 27.904 74.334 25.6C74.334 22.0587 73.2673 20.288 71.134 20.288C70.366 20.288 69.5767 20.5653 68.766 21.12C67.998 21.6747 67.3153 22.4427 66.718 23.424L62.942 41.344C63.2833 42.3253 64.094 42.816 65.374 42.816ZM92.3675 48.384C89.9355 48.384 87.9088 47.552 86.2875 45.888C84.6662 44.224 83.8555 41.6213 83.8555 38.08C83.8555 34.9227 84.4742 31.616 85.7115 28.16C86.9915 24.6613 88.8688 21.7173 91.3435 19.328C93.8608 16.896 96.8475 15.68 100.304 15.68C102.053 15.68 103.354 15.9787 104.208 16.576C105.061 17.1733 105.488 17.9627 105.488 18.944V19.392L106.192 16H115.408L110.8 37.76C110.629 38.4 110.544 39.0827 110.544 39.808C110.544 41.6427 111.418 42.56 113.168 42.56C114.362 42.56 115.386 42.0053 116.24 40.896C117.136 39.7867 117.84 38.336 118.352 36.544H121.04C119.461 41.152 117.498 44.288 115.152 45.952C112.848 47.5733 110.522 48.384 108.176 48.384C106.384 48.384 104.933 47.8933 103.824 46.912C102.757 45.888 102.117 44.416 101.904 42.496C100.666 44.2453 99.2795 45.6747 97.7435 46.784C96.2502 47.8507 94.4582 48.384 92.3675 48.384ZM96.5275 42.176C97.5942 42.176 98.6395 41.6853 99.6635 40.704C100.73 39.68 101.456 38.2933 101.84 36.544L104.912 22.08C104.912 21.5253 104.698 20.992 104.272 20.48C103.845 19.9253 103.184 19.648 102.288 19.648C100.581 19.648 99.0448 20.6507 97.6795 22.656C96.3142 24.6187 95.2475 27.008 94.4795 29.824C93.7115 32.5973 93.3275 35.0507 93.3275 37.184C93.3275 39.3173 93.6262 40.6827 94.2235 41.28C94.8635 41.8773 95.6315 42.176 96.5275 42.176ZM141.479 48.384C138.876 48.384 136.956 47.7013 135.719 46.336C134.524 44.928 133.927 43.2 133.927 41.152C133.927 40.256 134.034 39.2533 134.247 38.144C134.46 36.992 134.674 35.8827 134.887 34.816C135.143 33.7493 135.314 33.0667 135.399 32.768C135.74 31.2747 136.06 29.8027 136.359 28.352C136.658 26.9013 136.807 25.728 136.807 24.832C136.807 22.656 136.039 21.568 134.503 21.568C133.394 21.568 132.412 22.1227 131.559 23.232C130.706 24.2987 130.023 25.7067 129.511 27.456L125.159 48H115.943L122.727 16H131.943L131.239 19.328C133.372 16.9387 135.868 15.744 138.727 15.744C140.903 15.744 142.631 16.3413 143.911 17.536C145.191 18.7307 145.831 20.544 145.831 22.976C145.831 24.2133 145.682 25.6 145.383 27.136C145.084 28.6293 144.658 30.464 144.103 32.64C143.762 33.9627 143.442 35.264 143.143 36.544C142.887 37.7813 142.759 38.7627 142.759 39.488C142.759 40.3413 142.951 41.0027 143.335 41.472C143.719 41.9413 144.38 42.176 145.319 42.176C146.599 42.176 147.623 41.728 148.391 40.832C149.159 39.8933 149.927 38.464 150.695 36.544H153.383C151.804 41.2373 149.97 44.3947 147.879 46.016C145.831 47.5947 143.698 48.384 141.479 48.384ZM160.032 48.256C156.874 48.256 154.378 47.4453 152.544 45.824C150.709 44.2027 149.791 41.6427 149.791 38.144C149.791 35.2427 150.389 32.0213 151.584 28.48C152.778 24.9387 154.698 21.888 157.344 19.328C159.989 16.7253 163.317 15.424 167.328 15.424C172.789 15.424 175.52 18.8373 175.52 25.664V25.728C175.648 25.7707 175.882 25.792 176.224 25.792C177.632 25.792 179.253 25.4293 181.088 24.704C182.922 23.936 184.586 23.0187 186.08 21.952L186.656 23.68C185.418 25.0027 183.797 26.1333 181.792 27.072C179.829 27.968 177.674 28.608 175.328 28.992C174.986 32.8747 174.112 36.2667 172.704 39.168C171.296 42.0693 169.482 44.3093 167.264 45.888C165.045 47.4667 162.634 48.256 160.032 48.256ZM162.592 42.496C163.616 42.496 164.64 41.92 165.664 40.768C166.688 39.5733 167.584 37.9733 168.352 35.968C169.12 33.92 169.674 31.6587 170.016 29.184C168.864 28.928 168.288 28.032 168.288 26.496C168.288 24.7467 168.949 23.5947 170.272 23.04C170.186 21.632 169.973 20.672 169.632 20.16C169.29 19.6053 168.693 19.328 167.84 19.328C166.432 19.328 165.066 20.352 163.744 22.4C162.421 24.448 161.354 26.9013 160.544 29.76C159.733 32.6187 159.328 35.136 159.328 37.312C159.328 39.36 159.562 40.7467 160.032 41.472C160.501 42.1547 161.354 42.496 162.592 42.496ZM186.109 48.384C183.634 48.384 181.693 47.7653 180.285 46.528C178.919 45.248 178.236 43.3493 178.236 40.832C178.236 39.808 178.343 38.784 178.556 37.76L183.165 16H192.381L187.773 37.76C187.559 38.8267 187.453 39.5947 187.453 40.064C187.453 41.472 188.178 42.176 189.629 42.176C191.591 42.176 193.405 40.9387 195.069 38.464C196.775 35.9893 198.141 33.0453 199.165 29.632C200.189 26.2187 200.701 23.2747 200.701 20.8C200.615 21.0133 200.338 21.184 199.869 21.312C199.399 21.3973 198.994 21.44 198.653 21.44C197.927 21.44 197.351 21.0987 196.925 20.416C196.541 19.7333 196.349 18.9867 196.349 18.176C196.349 17.152 196.669 16.32 197.309 15.68C197.991 15.04 198.994 14.72 200.317 14.72C201.725 14.72 202.749 15.2533 203.389 16.32C204.029 17.344 204.349 18.6667 204.349 20.288C204.349 24.128 203.687 28.2453 202.365 32.64C201.042 36.992 199.015 40.704 196.285 43.776C193.554 46.848 190.162 48.384 186.109 48.384ZM212.993 48.384C210.561 48.384 208.534 47.552 206.913 45.888C205.291 44.224 204.48 41.6213 204.48 38.08C204.48 34.9227 205.099 31.616 206.337 28.16C207.617 24.6613 209.494 21.7173 211.969 19.328C214.486 16.896 217.473 15.68 220.929 15.68C222.678 15.68 223.979 15.9787 224.833 16.576C225.686 17.1733 226.113 17.9627 226.113 18.944V19.392L226.817 16H236.033L231.425 37.76C231.254 38.4 231.169 39.0827 231.169 39.808C231.169 40.6613 231.361 41.28 231.745 41.664C232.171 42.0053 232.854 42.176 233.793 42.176C234.39 42.176 234.859 42.0907 235.201 41.92C234.262 44.3093 233.366 45.9947 232.513 46.976C231.659 47.9147 230.422 48.384 228.801 48.384C227.051 48.384 225.622 47.872 224.513 46.848C223.446 45.7813 222.785 44.3093 222.529 42.432C219.926 46.4 216.747 48.384 212.993 48.384ZM217.153 42.176C218.219 42.176 219.265 41.6853 220.289 40.704C221.355 39.68 222.081 38.2933 222.465 36.544L225.537 22.08C225.537 21.5253 225.323 20.992 224.897 20.48C224.47 19.9253 223.809 19.648 222.913 19.648C221.206 19.648 219.67 20.6507 218.305 22.656C216.939 24.6187 215.873 27.008 215.105 29.824C214.337 32.5973 213.953 35.0507 213.953 37.184C213.953 39.3173 214.251 40.6827 214.849 41.28C215.489 41.8773 216.257 42.176 217.153 42.176Z" fill="#fff"/>
</svg>
